HIERARCHY
ROOT Hips
{
	OFFSET 0.000000 0.000000 0.000000
	CHANNELS 6 Xposition Yposition Zposition Zrotation Yrotation Xrotation 
	JOINT LHipJoint
	{
		OFFSET 0.000000 0.000000 0.000000
		CHANNELS 3 Zrotation Yrotation Xrotation
		JOINT LeftUpLeg
		{
			OFFSET 1.363060 -1.794630 0.839290
			CHANNELS 3 Zrotation Yrotation Xrotation
			JOINT LeftLeg
			{
				OFFSET 2.448110 -6.726130 0.000000
				CHANNELS 3 Zrotation Yrotation Xrotation
				JOINT LeftFoot
				{
					OFFSET 2.562200 -7.039590 0.000000
					CHANNELS 3 Zrotation Yrotation Xrotation
					JOINT LeftToeBase
					{
						OFFSET 0.157640 -0.433110 2.322550
						CHANNELS 3 Zrotation Yrotation Xrotation
						End Site
						{
							OFFSET 0.000000 0.000000 0.000000
						}
					}
				}
			}
		}
	}
	JOINT RHipJoint
	{
		OFFSET 0.000000 0.000000 0.000000
		CHANNELS 3 Zrotation Yrotation Xrotation
		JOINT RightUpLeg
		{
			OFFSET -1.305520 -1.794630 0.839290
			CHANNELS 3 Zrotation Yrotation Xrotation
			JOINT RightLeg
			{
				OFFSET -2.542530 -6.985550 0.000000
				CHANNELS 3 Zrotation Yrotation Xrotation
				JOINT RightFoot
				{
					OFFSET -2.568260 -7.056230 0.000000
					CHANNELS 3 Zrotation Yrotation Xrotation
					JOINT RightToeBase
					{
						OFFSET -0.164730 -0.452590 2.363150
						CHANNELS 3 Zrotation Yrotation Xrotation
						End Site
						{
							OFFSET 0.000000 0.000000 0.000000
						}
					}
				}
			}
		}
	}
	JOINT LowerBack
	{
		OFFSET 0.000000 0.000000 0.000000
		CHANNELS 3 Zrotation Yrotation Xrotation
		JOINT Spine
		{
			OFFSET 0.028270 2.035590 -0.193380
			CHANNELS 3 Zrotation Yrotation Xrotation
			JOINT Spine1
			{
				OFFSET 0.056720 2.048850 -0.042750
				CHANNELS 3 Zrotation Yrotation Xrotation
				JOINT Neck
				{
					OFFSET 0.000000 0.000000 0.000000
					CHANNELS 3 Zrotation Yrotation Xrotation
					JOINT Neck1
					{
						OFFSET -0.054170 1.746240 0.172020
						CHANNELS 3 Zrotation Yrotation Xrotation
						JOINT Head
						{
							OFFSET 0.104070 1.761360 -0.123970
							CHANNELS 3 Zrotation Yrotation Xrotation
							End Site
							{
								OFFSET 0.000000 0.000000 0.000000
							}
						}
					}
				}
				JOINT LeftShoulder
				{
					OFFSET 0.000000 0.000000 0.000000
					CHANNELS 3 Zrotation Yrotation Xrotation
					JOINT LeftArm
					{
						OFFSET 3.362410 1.200890 -0.311210
						CHANNELS 3 Zrotation Yrotation Xrotation
						JOINT LeftForeArm
						{
							OFFSET 4.983000 -0.000000 -0.000000
							CHANNELS 3 Zrotation Yrotation Xrotation
							JOINT LeftHand
							{
								OFFSET 3.483560 -0.000000 -0.000000
								CHANNELS 3 Zrotation Yrotation Xrotation
								JOINT LeftFingerBase
								{
									OFFSET 0.000000 0.000000 0.000000
									CHANNELS 3 Zrotation Yrotation Xrotation
									JOINT LeftHandIndex1
									{
										OFFSET 0.715260 -0.000000 -0.000000
										CHANNELS 3 Zrotation Yrotation Xrotation
										End Site
										{
											OFFSET 0.000000 0.000000 0.000000
										}
									}
								}
								JOINT LThumb
								{
									OFFSET 0.000000 0.000000 0.000000
									CHANNELS 3 Zrotation Yrotation Xrotation
									End Site
									{
										OFFSET 0.000000 0.000000 0.000000
									}
								}
							}
						}
					}
				}
				JOINT RightShoulder
				{
					OFFSET 0.000000 0.000000 0.000000
					CHANNELS 3 Zrotation Yrotation Xrotation
					JOINT RightArm
					{
						OFFSET -3.136600 1.374050 -0.404650
						CHANNELS 3 Zrotation Yrotation Xrotation
						JOINT RightForeArm
						{
							OFFSET -5.241900 -0.000000 -0.000000
							CHANNELS 3 Zrotation Yrotation Xrotation
							JOINT RightHand
							{
								OFFSET -3.444170 -0.000000 -0.000000
								CHANNELS 3 Zrotation Yrotation Xrotation
								JOINT RightFingerBase
								{
									OFFSET 0.000000 0.000000 0.000000
									CHANNELS 3 Zrotation Yrotation Xrotation
									JOINT RightHandIndex1
									{
										OFFSET -0.622530 -0.000000 -0.000000
										CHANNELS 3 Zrotation Yrotation Xrotation
										End Site
										{
											OFFSET 0.000000 0.000000 0.000000
										}
									}
								}
								JOINT RThumb
								{
									OFFSET 0.000000 0.000000 0.000000
									CHANNELS 3 Zrotation Yrotation Xrotation
									End Site
									{
										OFFSET 0.000000 0.000000 0.000000
									}
								}
							}
						}
					}
				}
			}
		}
	}
}
MOTION
Frames: 8
Frame Time: 0.008333
-4.173242 17.566445 -0.792217 -119.889813 88.980149 -84.635596 -13.439614 2.240309 -2.916678 -5.805882 6.543794 -11.690289 -0.055111 1.542459 38.257467 2.456134 17.131892 4.136648 3.258099 0.000000 -32.230700 6.448977 -0.901704 3.789462 11.224223 9.006772 -61.915104 4.449073 -0.805429 14.439768 1.627856 6.159219 12.467857 1.315700 0.000000 -66.183399 8.722007 -5.236977 2.184420 2.228751 -5.625134 -2.431599 -2.313425 -5.787648 0.963709 1.080729 -17.207639 -3.789994 -1.187633 -0.135892 0.795445 0.000000 0.000000 0.000000 11.110120 5.597473 -2.332232 -61.161200 -32.384701 7.968972 -178.218413 -63.054129 179.983458 1.841189 -1.844284 -0.041234 -0.086227 0.723983 -0.000000 0.000000 0.000000 0.000000 0.000000 0.000000 0.000000 -5.561831 -16.160625 -0.098368 58.292762 -44.691102 18.757841 179.942231 85.952726 179.993522 0.179551 11.970984 0.023566 -0.037913 -0.284132 -0.000000 0.000000 0.000000 0.000000 0.000000 0.000000 0.000000 
-3.874085 17.499957 -0.770954 -108.170054 88.848350 -73.515674 -13.267803 2.294739 -3.202988 -5.647517 7.260531 -11.274567 0.066723 1.737353 41.540702 2.579573 17.907469 3.462945 3.219200 0.000000 -31.761001 6.611718 -1.025774 3.556068 12.638238 8.495291 -61.053625 4.541201 -0.890320 14.384955 1.600477 6.069072 12.943467 1.331801 0.000000 -65.678100 9.003874 -5.314235 2.690486 2.263450 -5.690539 -2.370634 -2.453108 -5.842430 0.794584 1.419997 -17.137848 -3.833196 -1.270124 -0.140741 0.781781 0.000000 0.000000 0.000000 10.970660 5.151369 -2.222822 -62.319754 -30.320097 9.398948 -178.162451 -63.980310 179.985781 1.723370 -1.714013 -0.036278 -0.093720 0.707452 0.000000 0.000000 0.000000 0.000000 0.000000 0.000000 0.000000 -5.036209 -15.976948 -0.103607 59.381445 -44.485063 17.453743 179.913970 84.797581 179.992024 -0.146461 12.210572 -0.011802 -0.036900 -0.300121 -0.000000 0.000000 0.000000 0.000000 0.000000 0.000000 0.000000 
-3.571644 17.420532 -0.748949 -96.152565 88.594018 -62.075790 -13.059422 2.397594 -3.457116 -5.448323 7.936551 -10.947288 0.181584 1.963230 44.882725 2.703067 18.668804 2.842189 3.176200 -0.000000 -31.251400 6.821335 -1.092809 3.339882 13.865989 8.092996 -60.196680 4.561278 -1.005867 14.801432 1.510112 5.682802 12.920105 1.192900 -0.000000 -64.550700 9.322257 -5.363666 3.127999 2.301638 -5.729675 -2.319438 -2.603220 -5.869660 0.644582 1.762864 -17.090143 -3.889772 -1.352670 -0.145396 0.765902 0.000000 0.000000 0.000000 10.702459 4.724580 -2.101020 -63.513336 -28.157739 10.723633 -178.144049 -65.125260 179.987751 1.628223 -1.581380 -0.032018 -0.100526 0.689583 0.000000 0.000000 0.000000 0.000000 0.000000 0.000000 0.000000 -4.503779 -15.817943 -0.100053 60.478950 -43.969017 16.287828 179.894879 83.872056 179.990511 -0.491418 12.435615 -0.050763 -0.034837 -0.315255 -0.000000 0.000000 0.000000 0.000000 0.000000 0.000000 0.000000 
-3.265473 17.327815 -0.725859 -85.004288 88.252678 -51.443919 -12.858826 2.556134 -3.666269 -5.242346 8.566333 -10.772617 0.288208 2.223068 48.287415 2.824663 19.415734 2.267895 3.129099 0.000000 -30.716000 7.044187 -1.106958 3.166181 14.842038 7.853745 -59.422799 4.512495 -1.143547 15.700154 1.363954 5.025723 12.331661 0.909700 0.000000 -62.717700 9.622007 -5.381123 3.455034 2.332222 -5.739635 -2.285368 -2.762499 -5.866913 0.519096 2.107318 -17.070272 -3.962534 -1.434562 -0.149825 0.747790 0.000000 0.000000 0.000000 10.304237 4.305679 -1.968605 -64.707984 -25.878070 11.893651 -178.171553 -66.498767 179.989217 1.566845 -1.427043 -0.028166 -0.106456 0.669517 -0.000000 0.000000 0.000000 0.000000 0.000000 0.000000 0.000000 -3.959202 -15.689490 -0.087861 61.570975 -43.148122 15.242287 179.884124 83.224759 179.989180 -0.847818 12.588644 -0.092218 -0.031296 -0.328307 -0.000000 0.000000 0.000000 0.000000 0.000000 0.000000 0.000000 
-2.956253 17.222543 -0.702175 -75.575793 87.876756 -42.476265 -12.707655 2.757099 -3.826753 -5.045289 9.131595 -10.736974 0.396802 2.509494 51.732948 2.942294 20.145158 1.737014 3.078601 -0.000000 -30.181501 7.240239 -1.086680 3.030352 15.558957 7.762399 -58.763638 4.402596 -1.303252 17.108286 1.171461 4.184959 11.122033 0.536400 0.000001 -60.320400 9.863121 -5.379385 3.675529 2.348005 -5.732282 -2.266408 -2.931244 -5.846217 0.420233 2.458721 -17.071610 -4.053184 -1.515504 -0.153982 0.726805 0.000000 0.000000 0.000000 9.780624 3.899441 -1.827536 -65.888067 -23.504880 12.877140 -178.251035 -68.130261 179.989891 1.572674 -1.295208 -0.026021 -0.112055 0.648652 -0.000000 0.000000 0.000000 0.000000 0.000000 0.000000 0.000000 -3.386826 -15.595761 -0.067398 62.649153 -42.023125 14.297301 179.881212 82.916318 179.988205 -1.165611 12.679357 -0.129672 -0.026908 -0.338783 -0.000000 0.000000 0.000000 0.000000 0.000000 0.000000 0.000000 
-2.644513 17.105691 -0.677883 -67.999439 87.516295 -35.297482 -12.620921 2.979125 -3.934713 -4.863944 9.622809 -10.859106 0.519960 2.808461 55.219432 3.053504 20.844960 1.247986 3.024700 0.000000 -29.688800 7.390085 -1.051972 2.941713 16.019584 7.817391 -58.284945 4.237009 -1.487752 19.055679 0.936441 3.243888 9.259709 0.139301 -0.000000 -57.363100 10.037082 -5.371580 3.777187 2.348205 -5.720283 -2.264665 -3.114186 -5.820434 0.347061 2.826101 -17.087121 -4.160686 -1.598610 -0.158141 0.703442 0.000000 0.000000 0.000000 9.137797 3.492723 -1.678199 -67.026701 -21.046407 13.643594 -178.383017 -70.032246 179.989610 1.668486 -1.185857 -0.025589 -0.117753 0.626807 -0.000000 0.000000 0.000000 0.000000 0.000000 0.000000 0.000000 -2.755453 -15.540218 -0.042571 63.694524 -40.614997 13.424679 179.884569 82.971543 179.987735 -1.437872 12.680978 -0.161425 -0.021521 -0.345963 -0.000000 0.000000 0.000000 0.000000 0.000000 0.000000 0.000000 
-2.331293 16.978938 -0.653261 -62.093675 87.205550 -29.734464 -12.595927 3.202193 -3.992889 -4.690179 10.037508 -11.133736 0.667426 3.107701 58.739266 3.156343 21.499354 0.796645 2.965900 0.000001 -29.245500 7.490664 -1.012451 2.894045 16.263328 7.991953 -58.016789 4.024145 -1.700704 21.554769 0.663197 2.295747 6.763289 -0.207000 0.000001 -53.951601 10.155570 -5.366710 3.771302 2.334535 -5.712031 -2.277531 -3.318567 -5.798007 0.296386 3.221727 -17.104673 -4.283025 -1.688176 -0.162647 0.678031 0.000000 0.000000 0.000000 8.388716 3.082506 -1.520990 -68.105148 -18.525058 14.175711 -178.564444 -72.215536 179.988215 1.882750 -1.113860 -0.027275 -0.124180 0.604212 -0.000000 0.000000 0.000000 0.000000 0.000000 0.000000 0.000000 -2.027930 -15.520545 -0.018787 64.687943 -38.943570 12.603607 179.893158 83.395989 179.987835 -1.655317 12.597192 -0.185779 -0.015245 -0.349761 -0.000000 0.000000 0.000000 0.000000 0.000000 0.000000 0.000000 
-2.017910 16.844582 -0.628495 -57.516889 86.962346 -25.462493 -12.620238 3.413572 -4.007690 -4.515158 10.378656 -11.544940 0.844026 3.399764 62.279651 3.249131 22.090661 0.379616 2.901000 -0.000000 -28.852300 7.552407 -0.966599 2.869498 16.347599 8.235646 -57.960039 3.775682 -1.944513 24.594607 0.360189 1.432354 3.696376 -0.438400 -0.000000 -50.152000 10.231254 -5.369074 3.684323 2.307724 -5.711322 -2.299678 -3.551023 -5.782771 0.263467 3.657957 -17.101768 -4.417212 -1.788538 -0.167844 0.650935 0.000000 0.000000 0.000000 7.556669 2.679298 -1.355683 -69.113487 -15.968310 14.467120 -178.789237 -74.689729 179.985647 2.241931 -1.107567 -0.032081 -0.131868 0.581321 -0.000000 0.000000 0.000000 0.000000 0.000000 0.000000 0.000000 -1.169215 -15.521551 -0.003542 65.612559 -37.030624 11.825499 179.906980 84.173323 179.988527 -1.814855 12.449862 -0.202235 -0.008295 -0.350612 -0.000000 0.000000 0.000000 0.000000 0.000000 0.000000 0.000000 
